<mxfile host="Electron" agent="Mozilla/5.0 (X11; Linux x86_64) AppleWebKit/537.36 (KHTML, like Gecko) draw.io/24.7.17 Chrome/128.0.6613.186 Electron/32.2.2 Safari/537.36" version="24.7.17">
  <diagram name="Page-1" id="1B5IPFv-TWEJTiJyefxq">
    <mxGraphModel dx="874" dy="535" grid="1" gridSize="10" guides="1" tooltips="1" connect="1" arrows="1" fold="1" page="1" pageScale="1" pageWidth="850" pageHeight="1100" math="0" shadow="0">
      <root>
        <mxCell id="0" />
        <mxCell id="1" parent="0" />
        <mxCell id="Ck1P-tKtcKv9071fAOt2-20" style="edgeStyle=orthogonalEdgeStyle;rounded=0;orthogonalLoop=1;jettySize=auto;html=1;exitX=1;exitY=0.5;exitDx=0;exitDy=0;entryX=0;entryY=0.5;entryDx=0;entryDy=0;" edge="1" parent="1" source="Myhd0ncaeg3XmT2BENRN-1" target="Ck1P-tKtcKv9071fAOt2-2">
          <mxGeometry relative="1" as="geometry" />
        </mxCell>
        <mxCell id="Myhd0ncaeg3XmT2BENRN-1" value="Samsung" style="rounded=0;whiteSpace=wrap;html=1;" vertex="1" parent="1">
          <mxGeometry x="452" y="490" width="120" height="60" as="geometry" />
        </mxCell>
        <mxCell id="Myhd0ncaeg3XmT2BENRN-3" value="Fabricante" style="text;html=1;align=center;verticalAlign=middle;resizable=0;points=[];autosize=1;strokeColor=none;fillColor=none;" vertex="1" parent="1">
          <mxGeometry x="472" y="550" width="80" height="30" as="geometry" />
        </mxCell>
        <mxCell id="Ck1P-tKtcKv9071fAOt2-3" style="edgeStyle=orthogonalEdgeStyle;rounded=0;orthogonalLoop=1;jettySize=auto;html=1;exitX=0.5;exitY=0;exitDx=0;exitDy=0;entryX=0.5;entryY=0;entryDx=0;entryDy=0;" edge="1" parent="1" source="Myhd0ncaeg3XmT2BENRN-4" target="Myhd0ncaeg3XmT2BENRN-1">
          <mxGeometry relative="1" as="geometry" />
        </mxCell>
        <mxCell id="Ck1P-tKtcKv9071fAOt2-18" style="edgeStyle=orthogonalEdgeStyle;rounded=0;orthogonalLoop=1;jettySize=auto;html=1;entryX=0;entryY=0.5;entryDx=0;entryDy=0;" edge="1" parent="1" source="Myhd0ncaeg3XmT2BENRN-4" target="Myhd0ncaeg3XmT2BENRN-7">
          <mxGeometry relative="1" as="geometry" />
        </mxCell>
        <mxCell id="cjaFVGDPBvvuAIcHG3kl-2" style="edgeStyle=orthogonalEdgeStyle;rounded=0;orthogonalLoop=1;jettySize=auto;html=1;exitX=0.5;exitY=1;exitDx=0;exitDy=0;entryX=0.5;entryY=1;entryDx=0;entryDy=0;" edge="1" parent="1" source="Myhd0ncaeg3XmT2BENRN-4" target="Ck1P-tKtcKv9071fAOt2-13">
          <mxGeometry relative="1" as="geometry" />
        </mxCell>
        <mxCell id="Myhd0ncaeg3XmT2BENRN-4" value="Cliente" style="rounded=0;whiteSpace=wrap;html=1;" vertex="1" parent="1">
          <mxGeometry x="107" y="490" width="120" height="60" as="geometry" />
        </mxCell>
        <mxCell id="Ck1P-tKtcKv9071fAOt2-16" style="edgeStyle=orthogonalEdgeStyle;rounded=0;orthogonalLoop=1;jettySize=auto;html=1;exitX=0.5;exitY=1;exitDx=0;exitDy=0;entryX=0.5;entryY=1;entryDx=0;entryDy=0;" edge="1" parent="1" source="Myhd0ncaeg3XmT2BENRN-6" target="Ck1P-tKtcKv9071fAOt2-13">
          <mxGeometry relative="1" as="geometry" />
        </mxCell>
        <mxCell id="Myhd0ncaeg3XmT2BENRN-6" value="Telcel" style="rounded=0;whiteSpace=wrap;html=1;" vertex="1" parent="1">
          <mxGeometry x="277" y="590" width="120" height="60" as="geometry" />
        </mxCell>
        <mxCell id="Ck1P-tKtcKv9071fAOt2-19" style="edgeStyle=orthogonalEdgeStyle;rounded=0;orthogonalLoop=1;jettySize=auto;html=1;exitX=1;exitY=0.5;exitDx=0;exitDy=0;entryX=0;entryY=0.5;entryDx=0;entryDy=0;" edge="1" parent="1" source="Myhd0ncaeg3XmT2BENRN-7" target="Myhd0ncaeg3XmT2BENRN-1">
          <mxGeometry relative="1" as="geometry" />
        </mxCell>
        <mxCell id="Myhd0ncaeg3XmT2BENRN-7" value="Elektra" style="rounded=0;whiteSpace=wrap;html=1;" vertex="1" parent="1">
          <mxGeometry x="277" y="490" width="120" height="60" as="geometry" />
        </mxCell>
        <mxCell id="Myhd0ncaeg3XmT2BENRN-13" value="Tiendas" style="text;html=1;align=center;verticalAlign=middle;resizable=0;points=[];autosize=1;strokeColor=none;fillColor=none;" vertex="1" parent="1">
          <mxGeometry x="302" y="550" width="70" height="30" as="geometry" />
        </mxCell>
        <mxCell id="Ck1P-tKtcKv9071fAOt2-2" value="Agiotech" style="rounded=0;whiteSpace=wrap;html=1;" vertex="1" parent="1">
          <mxGeometry x="624" y="490" width="120" height="60" as="geometry" />
        </mxCell>
        <mxCell id="Ck1P-tKtcKv9071fAOt2-4" value="Servicio de fabricante" style="text;html=1;align=center;verticalAlign=middle;resizable=0;points=[];autosize=1;strokeColor=none;fillColor=none;" vertex="1" parent="1">
          <mxGeometry x="267" y="430" width="140" height="30" as="geometry" />
        </mxCell>
        <mxCell id="Ck1P-tKtcKv9071fAOt2-5" value="Reparadores" style="text;html=1;align=center;verticalAlign=middle;resizable=0;points=[];autosize=1;strokeColor=none;fillColor=none;" vertex="1" parent="1">
          <mxGeometry x="639" y="550" width="90" height="30" as="geometry" />
        </mxCell>
        <mxCell id="Ck1P-tKtcKv9071fAOt2-7" value="Servicio por medio de terceros" style="text;html=1;align=center;verticalAlign=middle;resizable=0;points=[];autosize=1;strokeColor=none;fillColor=none;" vertex="1" parent="1">
          <mxGeometry x="417" y="670" width="190" height="30" as="geometry" />
        </mxCell>
        <mxCell id="Ck1P-tKtcKv9071fAOt2-13" value="Otros centros de reparación" style="rounded=0;whiteSpace=wrap;html=1;" vertex="1" parent="1">
          <mxGeometry x="624" y="590" width="120" height="60" as="geometry" />
        </mxCell>
        <mxCell id="Ck1P-tKtcKv9071fAOt2-21" value="Centros de&lt;br&gt;&amp;nbsp;Reparación Samsung" style="shape=parallelogram;perimeter=parallelogramPerimeter;whiteSpace=wrap;html=1;fixedSize=1;" vertex="1" parent="1">
          <mxGeometry x="624" y="400" width="120" height="60" as="geometry" />
        </mxCell>
      </root>
    </mxGraphModel>
  </diagram>
</mxfile>
